<svg xmlns="http://www.w3.org/2000/svg" style="display: none;">
    <symbol id="search" viewBox="0 0 511.999 511.999"><title>search</title><path d="M508.874,478.708L360.142,329.976c28.21-34.827,45.191-79.103,45.191-127.309c0-111.75-90.917-202.667-202.667-202.667 S0,90.917,0,202.667s90.917,202.667,202.667,202.667c48.206,0,92.482-16.982,127.309-45.191l148.732,148.732 c4.167,4.165,10.919,4.165,15.086,0l15.081-15.082C513.04,489.627,513.04,482.873,508.874,478.708z M202.667,362.667 c-88.229,0-160-71.771-160-160s71.771-160,160-160s160,71.771,160,160S290.896,362.667,202.667,362.667z"/></symbol>
    <symbol id="add" viewBox="0 0 512 512"><title>add</title><g> <g> <path d="M256,0C114.833,0,0,114.833,0,256s114.833,256,256,256s256-114.853,256-256S397.167,0,256,0z M256,472.341 c-119.275,0-216.341-97.046-216.341-216.341S136.725,39.659,256,39.659S472.341,136.705,472.341,256S375.295,472.341,256,472.341z "/> </g> </g><g> <g> <path d="M355.148,234.386H275.83v-79.318c0-10.946-8.864-19.83-19.83-19.83s-19.83,8.884-19.83,19.83v79.318h-79.318 c-10.966,0-19.83,8.884-19.83,19.83s8.864,19.83,19.83,19.83h79.318v79.318c0,10.946,8.864,19.83,19.83,19.83 s19.83-8.884,19.83-19.83v-79.318h79.318c10.966,0,19.83-8.884,19.83-19.83S366.114,234.386,355.148,234.386z"/> </g> </g></symbol>
    <symbol id="down-arrow" viewBox="0 0 213.333 213.333"><title>down-arrow</title><polygon points="0,53.333 106.667,160 213.333,53.333 "/></symbol>
    <symbol id="funnel" viewBox="0 0 465.294 465.294"><title>funnel</title><path d="m398.825 33.235c-12.135 0-23.369 3.507-33.17 9.207v-25.761c0-9.169-7.432-16.616-16.618-16.616l-332.419-.065c-4.414 0-8.634 1.753-11.75 4.867-3.115 3.115-4.868 7.351-4.868 11.749l.049 125.052c.016 19.796 7.124 38.974 20.009 54.015l67.72 78.989c7.725 9.037 11.993 20.557 11.993 32.436v141.57c0 5.112 2.353 9.946 6.394 13.094 2.954 2.304 6.556 3.522 10.224 3.522 1.347 0 2.694-.162 4.025-.503l132.941-33.231c7.4-1.85 12.528-8.485 12.528-16.113v-108.339c0-11.879 4.333-23.399 12.074-32.436l67.688-78.989c9.69-11.297 16.106-24.939 18.703-39.424 10.084 6.171 21.811 9.917 34.477 9.917 36.66 0 66.471-29.811 66.471-66.471s-29.811-66.471-66.471-66.471zm-78.415 140.837-67.688 78.987c-12.901 15.041-20.009 34.237-20.009 54.05v95.359l-99.771 24.922v-120.282c0-19.813-7.043-39.009-19.944-54.05l-67.704-78.987c-7.725-9.039-12.041-20.559-12.058-32.42v-108.422l299.118.006.041 66.079c0 .134-.041.258-.041.392 0 .136.041.26.041.396l.024 41.534c0 11.876-4.268 23.396-12.009 32.436zm78.415-41.131c-18.208 0-32.986-14.749-33.17-32.915v-.641c.185-18.165 14.962-32.915 33.17-32.915 18.322 0 33.235 14.914 33.235 33.235s-14.913 33.236-33.235 33.236z"/></symbol>
    <symbol id="exchange" viewBox="0 0 428.131 428.131"><title>exchange</title><path d="M227.459,180.631c2.68-4.641,2.68-10.359,0-15L136.162,7.5c-2.679-4.641-7.631-7.5-12.99-7.5s-10.311,2.859-12.99,7.5 L18.885,165.631c-2.68,4.641-2.68,10.359,0,15c2.679,4.641,7.631,7.5,12.99,7.5h34.297v225c0,8.284,6.716,15,15,15h84 c8.284,0,15-6.716,15-15v-225h34.297C219.828,188.131,224.78,185.271,227.459,180.631z M165.172,158.131c-8.284,0-15,6.716-15,15 v225h-54v-225c0-8.284-6.716-15-15-15H57.856L123.172,45l65.316,113.131H165.172z"/><path d="M409.246,247.5c-2.68-4.641-7.631-7.5-12.99-7.5h-34.297V15c0-8.284-6.716-15-15-15h-84c-8.284,0-15,6.716-15,15v225 h-34.297c-5.359,0-10.311,2.859-12.99,7.5c-2.68,4.641-2.68,10.359,0,15l91.297,158.131c2.68,4.641,7.631,7.5,12.99,7.5 s10.311-2.859,12.99-7.5L409.246,262.5C411.926,257.859,411.926,252.141,409.246,247.5z M304.959,383.131L239.643,270h23.316 c8.284,0,15-6.716,15-15V30h54v225c0,8.284,6.716,15,15,15h23.316L304.959,383.131z"/></symbol>
    <symbol id="home" viewBox="0 0 511.995 511.995"><title>home</title><path d="m507.308 236.641-198.98-198.99c-28.86-28.85-75.8-28.85-104.66 0l-198.98 198.99c-6.25 6.25-6.25 16.38 0 22.63 6.24 6.25 16.38 6.25 22.62 0l12.69-12.69v203.4c0 25.405 20.595 46 46 46h80c5.523 0 10-4.477 10-10v-148c0-27.614 22.386-50 50-50h60c27.614 0 50 22.386 50 50v148c0 5.523 4.477 10 10 10h80c25.405 0 46-20.595 46-46v-203.4l12.69 12.69c3.12 3.12 7.22 4.69 11.31 4.69s8.19-1.57 11.31-4.69c6.25-6.25 6.25-16.38 0-22.63z"/></symbol>
    <symbol id="search" viewBox="0 0 24 24"><title>search</title><path d="m17 22c-2.757 0-5-2.243-5-5s2.243-5 5-5 5 2.243 5 5-2.243 5-5 5zm0-9c-2.206 0-4 1.794-4 4s1.794 4 4 4 4-1.794 4-4-1.794-4-4-4z"/><path d="m23.5 24c-.128 0-.256-.049-.354-.146l-3.318-3.318c-.195-.195-.195-.512 0-.707s.512-.195.707 0l3.318 3.318c.195.195.195.512 0 .707-.097.097-.225.146-.353.146z"/><path d="m10.5 21h-8c-1.378 0-2.5-1.121-2.5-2.5v-13c0-1.379 1.122-2.5 2.5-2.5h2c.276 0 .5.224.5.5s-.224.5-.5.5h-2c-.827 0-1.5.673-1.5 1.5v13c0 .827.673 1.5 1.5 1.5h8c.276 0 .5.224.5.5s-.224.5-.5.5z"/><path d="m11.5 6h-6c-.827 0-1.5-.673-1.5-1.5v-2c0-.276.224-.5.5-.5h1.55c.233-1.14 1.242-2 2.45-2s2.217.86 2.45 2h1.55c.276 0 .5.224.5.5v2c0 .827-.673 1.5-1.5 1.5zm-6.5-3v1.5c0 .275.224.5.5.5h6c.276 0 .5-.225.5-.5v-1.5h-1.5c-.276 0-.5-.224-.5-.5 0-.827-.673-1.5-1.5-1.5s-1.5.673-1.5 1.5c0 .276-.224.5-.5.5z"/><path d="m13.5 9h-10c-.276 0-.5-.224-.5-.5s.224-.5.5-.5h10c.276 0 .5.224.5.5s-.224.5-.5.5z"/><path d="m12.5 12h-9c-.276 0-.5-.224-.5-.5s.224-.5.5-.5h9c.276 0 .5.224.5.5s-.224.5-.5.5z"/><path d="m10 15h-6.5c-.276 0-.5-.224-.5-.5s.224-.5.5-.5h6.5c.276 0 .5.224.5.5s-.224.5-.5.5z"/><path d="m16.5 10c-.276 0-.5-.224-.5-.5v-4c0-.827-.673-1.5-1.5-1.5h-2c-.276 0-.5-.224-.5-.5s.224-.5.5-.5h2c1.378 0 2.5 1.121 2.5 2.5v4c0 .276-.224.5-.5.5z"/></symbol>
    <symbol id="folder" viewBox="0 0 408 408"><title>folder</title><g> <g> <path d="M332,121.921H184.8l-29.28-34.8c-0.985-1.184-2.461-1.848-4-1.8H32.76C14.628,85.453,0,100.189,0,118.321v214.04 c0.022,18.194,14.766,32.938,32.96,32.96H332c18.194-0.022,32.938-14.766,32.96-32.96v-177.48 C364.938,136.687,350.194,121.943,332,121.921z"/> </g> </g><g> <g> <path d="M375.24,79.281H228l-29.28-34.8c-0.985-1.184-2.461-1.848-4-1.8H76c-16.452,0.027-30.364,12.181-32.6,28.48h108.28 c5.678-0.014,11.069,2.492,14.72,6.84l25,29.72H332c26.005,0.044,47.076,21.115,47.12,47.12v167.52 c16.488-2.057,28.867-16.064,28.88-32.68v-177.48C407.957,94.1,393.34,79.413,375.24,79.281z"/> </g> </g></symbol>
    <symbol id="clipboard" viewBox="0 0 438.891 438.891"><title>clipboard</title><path d="M347.968,57.503h-39.706V39.74c0-5.747-6.269-8.359-12.016-8.359h-30.824c-7.314-20.898-25.6-31.347-46.498-31.347 c-20.668-0.777-39.467,11.896-46.498,31.347h-30.302c-5.747,0-11.494,2.612-11.494,8.359v17.763H90.923 c-23.53,0.251-42.78,18.813-43.886,42.318v299.363c0,22.988,20.898,39.706,43.886,39.706h257.045 c22.988,0,43.886-16.718,43.886-39.706V99.822C390.748,76.316,371.498,57.754,347.968,57.503z M151.527,52.279h28.735 c5.016-0.612,9.045-4.428,9.927-9.404c3.094-13.474,14.915-23.146,28.735-23.51c13.692,0.415,25.335,10.117,28.212,23.51 c0.937,5.148,5.232,9.013,10.449,9.404h29.78v41.796H151.527V52.279z M370.956,399.185c0,11.494-11.494,18.808-22.988,18.808 H90.923c-11.494,0-22.988-7.314-22.988-18.808V99.822c1.066-11.964,10.978-21.201,22.988-21.42h39.706v26.645 c0.552,5.854,5.622,10.233,11.494,9.927h154.122c5.98,0.327,11.209-3.992,12.016-9.927V78.401h39.706 c12.009,0.22,21.922,9.456,22.988,21.42V399.185z"/><path d="M179.217,233.569c-3.919-4.131-10.425-4.364-14.629-0.522l-33.437,31.869l-14.106-14.629 c-3.919-4.131-10.425-4.363-14.629-0.522c-4.047,4.24-4.047,10.911,0,15.151l21.42,21.943c1.854,2.076,4.532,3.224,7.314,3.135 c2.756-0.039,5.385-1.166,7.314-3.135l40.751-38.661c4.04-3.706,4.31-9.986,0.603-14.025 C179.628,233.962,179.427,233.761,179.217,233.569z"/><path d="M329.16,256.034H208.997c-5.771,0-10.449,4.678-10.449,10.449s4.678,10.449,10.449,10.449H329.16 c5.771,0,10.449-4.678,10.449-10.449S334.931,256.034,329.16,256.034z"/><path d="M179.217,149.977c-3.919-4.131-10.425-4.364-14.629-0.522l-33.437,31.869l-14.106-14.629 c-3.919-4.131-10.425-4.364-14.629-0.522c-4.047,4.24-4.047,10.911,0,15.151l21.42,21.943c1.854,2.076,4.532,3.224,7.314,3.135 c2.756-0.039,5.385-1.166,7.314-3.135l40.751-38.661c4.04-3.706,4.31-9.986,0.603-14.025 C179.628,150.37,179.427,150.169,179.217,149.977z"/><path d="M329.16,172.442H208.997c-5.771,0-10.449,4.678-10.449,10.449s4.678,10.449,10.449,10.449H329.16 c5.771,0,10.449-4.678,10.449-10.449S334.931,172.442,329.16,172.442z"/><path d="M179.217,317.16c-3.919-4.131-10.425-4.363-14.629-0.522l-33.437,31.869l-14.106-14.629 c-3.919-4.131-10.425-4.363-14.629-0.522c-4.047,4.24-4.047,10.911,0,15.151l21.42,21.943c1.854,2.076,4.532,3.224,7.314,3.135 c2.756-0.039,5.385-1.166,7.314-3.135l40.751-38.661c4.04-3.706,4.31-9.986,0.603-14.025 C179.628,317.554,179.427,317.353,179.217,317.16z"/><path d="M329.16,339.626H208.997c-5.771,0-10.449,4.678-10.449,10.449s4.678,10.449,10.449,10.449H329.16 c5.771,0,10.449-4.678,10.449-10.449S334.931,339.626,329.16,339.626z"/></symbol>
    <symbol id="documents" viewBox="0 0 64 64"><title>documents</title><path d="M58.93,37.06a2.95,2.95,0,0,0-.93-.72V23.12A3.068,3.068,0,0,0,55,20H51.41L51,19.59V7a1,1,0,0,0-1-1H49V3a1,1,0,0,0-1-1H14a1,1,0,0,0-1,1V6H12a1,1,0,0,0-1,1v3a1,1,0,0,0-1,1v9H6a3.009,3.009,0,0,0-3,3V61a1,1,0,0,0,1,1H53.31a2.978,2.978,0,0,0,2.95-2.51l3.34-20A3.019,3.019,0,0,0,58.93,37.06ZM52,22h3a1.066,1.066,0,0,1,1,1.12V36H52ZM15,4H47V6H15ZM13,8H49v9.59l-7.29-7.3A1.033,1.033,0,0,0,41,10H13ZM48.59,20H43a1,1,0,0,1-1-1V13.41ZM12,12H40v7a3.009,3.009,0,0,0,3,3h7V36H12ZM5,23a1,1,0,0,1,1-1h4V36H9.69a2.978,2.978,0,0,0-2.95,2.51L5,48.92ZM54.29,59.17a.989.989,0,0,1-.98.83H5.18L8.71,38.83A.989.989,0,0,1,9.69,38H56.64a1,1,0,0,1,.76.35,1.014,1.014,0,0,1,.23.82Z"/></symbol>
    <symbol id="team" viewBox="0 0 480 480"><title>team</title><g> <g> <path d="M283.824,90.76C291.424,81.2,296,69.136,296,56c0-30.88-25.12-56-56-56s-56,25.12-56,56c0,13.136,4.576,25.2,12.176,34.76 C164.56,107.04,144,139.912,144,176v24c0,4.416,3.584,8,8,8h176c4.416,0,8-3.584,8-8v-24C336,139.912,315.44,107.04,283.824,90.76 z M240,16c22.056,0,40,17.944,40,40c0,13.184-6.496,24.808-16.368,32.104c-0.944,0.696-1.912,1.344-2.904,1.944 c-0.96,0.592-1.968,1.112-2.984,1.624c-1.304,0.64-2.616,1.256-3.968,1.744c-0.592,0.216-1.216,0.376-1.824,0.568 c-7.76,2.376-16.128,2.376-23.896,0c-0.608-0.192-1.232-0.344-1.824-0.568c-1.36-0.488-2.664-1.104-3.968-1.744 c-1.016-0.504-2.016-1.032-2.984-1.624c-0.992-0.6-1.96-1.248-2.904-1.944C206.496,80.808,200,69.184,200,56 C200,33.944,217.944,16,240,16z M320,192H160v-16c0-32.04,19.424-61.08,48.752-73.552c2.272,1.536,4.696,2.856,7.192,4.048 c0.016,0.008,0.024,0.016,0.04,0.024C223.272,109.992,231.4,112,240,112c8.6,0,16.728-2.008,24.016-5.488 c0.016-0.008,0.024-0.016,0.04-0.024c2.496-1.192,4.92-2.512,7.192-4.048C300.576,114.92,320,143.96,320,176V192z"/> </g> </g><g> <g> <path d="M139.824,362.76C147.424,353.2,152,341.136,152,328c0-30.88-25.12-56-56-56s-56,25.12-56,56 c0,13.136,4.576,25.2,12.176,34.76C20.56,379.04,0,411.912,0,448v24c0,4.416,3.584,8,8,8h176c4.416,0,8-3.584,8-8v-24 C192,411.912,171.44,379.04,139.824,362.76z M96,288c22.056,0,40,17.944,40,40c0,13.184-6.496,24.808-16.368,32.104 c-0.944,0.696-1.912,1.344-2.904,1.944c-0.96,0.592-1.968,1.112-2.984,1.624c-1.304,0.64-2.616,1.256-3.968,1.744 c-0.592,0.216-1.216,0.376-1.824,0.568c-7.76,2.376-16.128,2.376-23.896,0c-0.608-0.192-1.232-0.344-1.824-0.568 c-1.36-0.488-2.664-1.104-3.968-1.744c-1.016-0.504-2.016-1.032-2.984-1.624c-0.992-0.6-1.96-1.248-2.904-1.944 C62.496,352.808,56,341.184,56,328C56,305.944,73.944,288,96,288z M176,464H16v-16c0-32.04,19.424-61.08,48.752-73.552 c2.272,1.536,4.696,2.856,7.192,4.048c0.016,0.008,0.024,0.016,0.04,0.024C79.272,381.992,87.4,384,96,384 s16.728-2.008,24.016-5.488c0.016-0.008,0.024-0.016,0.04-0.024c2.496-1.192,4.92-2.512,7.192-4.048 C156.576,386.92,176,415.96,176,448V464z"/> </g> </g><g> <g> <path d="M427.824,362.76C435.424,353.2,440,341.136,440,328c0-30.88-25.12-56-56-56s-56,25.12-56,56 c0,13.136,4.576,25.2,12.176,34.76C308.56,379.04,288,411.912,288,448v24c0,4.416,3.584,8,8,8h176c4.416,0,8-3.584,8-8v-24 C480,411.912,459.44,379.04,427.824,362.76z M384,288c22.056,0,40,17.944,40,40c0,13.184-6.496,24.808-16.368,32.104 c-0.944,0.696-1.912,1.344-2.904,1.944c-0.96,0.592-1.968,1.112-2.984,1.624c-1.304,0.64-2.616,1.256-3.968,1.744 c-0.592,0.216-1.216,0.376-1.824,0.568c-7.76,2.376-16.128,2.376-23.896,0c-0.608-0.192-1.232-0.344-1.824-0.568 c-1.36-0.488-2.664-1.104-3.968-1.744c-1.016-0.504-2.016-1.032-2.984-1.624c-0.992-0.6-1.96-1.248-2.904-1.944 C350.496,352.808,344,341.184,344,328C344,305.944,361.944,288,384,288z M464,464H304v-16c0-32.04,19.424-61.08,48.752-73.552 c2.272,1.536,4.696,2.856,7.192,4.048c0.016,0.008,0.024,0.016,0.04,0.024C367.272,381.992,375.4,384,384,384 c8.6,0,16.728-2.008,24.016-5.488c0.016-0.008,0.024-0.016,0.04-0.024c2.496-1.192,4.92-2.512,7.192-4.048 C444.576,386.92,464,415.96,464,448V464z"/> </g> </g><g> <g> <polygon points="248,268.16 248,224 232,224 232,268.16 195,297.752 205,310.248 240,282.248 275,310.248 285,297.752 "/> </g> </g><g> <g> <rect x="232" y="128" width="16" height="16"/> </g> </g><g> <g> <rect x="232" y="160" width="16" height="16"/> </g> </g><g> <g> <rect x="376" y="400" width="16" height="16"/> </g> </g><g> <g> <rect x="376" y="432" width="16" height="16"/> </g> </g><g> <g> <rect x="88" y="400" width="16" height="16"/> </g> </g><g> <g> <rect x="88" y="432" width="16" height="16"/> </g> </g></symbol>
    <symbol id="statistics" viewBox="0 0 512 512"><title>statistics</title><path d="m76 240c12.101562 0 23.054688-4.855469 31.148438-12.652344l44.402343 22.199219c-.222656 1.808594-.550781 3.585937-.550781 5.453125 0 24.8125 20.1875 45 45 45s45-20.1875 45-45c0-6.925781-1.703125-13.410156-4.511719-19.277344l60.234375-60.234375c5.867188 2.808594 12.351563 4.511719 19.277344 4.511719 24.8125 0 45-20.1875 45-45 0-4.671875-.917969-9.089844-2.246094-13.328125l52.335938-39.242187c7.140625 4.769531 15.699218 7.570312 24.910156 7.570312 24.8125 0 45-20.1875 45-45s-20.1875-45-45-45-45 20.1875-45 45c0 4.671875.917969 9.089844 2.246094 13.328125l-52.335938 39.242187c-7.140625-4.769531-15.699218-7.570312-24.910156-7.570312-24.8125 0-45 20.1875-45 45 0 6.925781 1.703125 13.410156 4.511719 19.277344l-60.234375 60.234375c-5.867188-2.808594-12.351563-4.511719-19.277344-4.511719-12.101562 0-23.054688 4.855469-31.148438 12.652344l-44.402343-22.199219c.222656-1.808594.550781-3.585937.550781-5.453125 0-24.8125-20.1875-45-45-45s-45 20.1875-45 45 20.1875 45 45 45zm0 0"/><path d="m497 482h-16v-317c0-8.289062-6.710938-15-15-15h-60c-8.289062 0-15 6.710938-15 15v317h-30v-227c0-8.289062-6.710938-15-15-15h-60c-8.289062 0-15 6.710938-15 15v227h-30v-107c0-8.289062-6.710938-15-15-15h-60c-8.289062 0-15 6.710938-15 15v107h-30v-167c0-8.289062-6.710938-15-15-15h-60c-8.289062 0-15 6.710938-15 15v167h-16c-8.289062 0-15 6.710938-15 15s6.710938 15 15 15h482c8.289062 0 15-6.710938 15-15s-6.710938-15-15-15zm0 0"/></symbol>
    <symbol id="calendar" viewBox="0 0 512 512"><title>calendar</title><path d="m144 249h-32c-8.284 0-15 6.716-15 15s6.716 15 15 15h32c8.284 0 15-6.716 15-15s-6.716-15-15-15z"/><path d="m144 313h-32c-8.284 0-15 6.716-15 15s6.716 15 15 15h32c8.284 0 15-6.716 15-15s-6.716-15-15-15z"/><path d="m144 377h-32c-8.284 0-15 6.716-15 15s6.716 15 15 15h32c8.284 0 15-6.716 15-15s-6.716-15-15-15z"/><path d="m272 249h-32c-8.284 0-15 6.716-15 15s6.716 15 15 15h32c8.284 0 15-6.716 15-15s-6.716-15-15-15z"/><path d="m272 313h-32c-8.284 0-15 6.716-15 15s6.716 15 15 15h32c8.284 0 15-6.716 15-15s-6.716-15-15-15z"/><path d="m272 377h-32c-8.284 0-15 6.716-15 15s6.716 15 15 15h32c8.284 0 15-6.716 15-15s-6.716-15-15-15z"/><path d="m400 249h-32c-8.284 0-15 6.716-15 15s6.716 15 15 15h32c8.284 0 15-6.716 15-15s-6.716-15-15-15z"/><path d="m400 313h-32c-8.284 0-15 6.716-15 15s6.716 15 15 15h32c8.284 0 15-6.716 15-15s-6.716-15-15-15z"/><path d="m400 377h-32c-8.284 0-15 6.716-15 15s6.716 15 15 15h32c8.284 0 15-6.716 15-15s-6.716-15-15-15z"/><path d="m467 65h-36v-25c0-8.284-6.716-15-15-15s-15 6.716-15 15v25h-130v-25c0-8.284-6.716-15-15-15s-15 6.716-15 15v25h-130v-25c0-8.284-6.716-15-15-15s-15 6.716-15 15v25h-36c-24.813 0-45 20.187-45 45v332c0 24.813 20.187 45 45 45h422c24.813 0 45-20.187 45-45 0-9.682 0-323.575 0-332 0-24.813-20.187-45-45-45zm-437 45c0-8.271 6.729-15 15-15h36v25c0 8.284 6.716 15 15 15s15-6.716 15-15v-25h130v25c0 8.284 6.716 15 15 15s15-6.716 15-15v-25h130v25c0 8.284 6.716 15 15 15s15-6.716 15-15v-25h36c8.271 0 15 6.729 15 15v59h-452zm437 347h-422c-8.271 0-15-6.729-15-15v-243h452v243c0 8.271-6.729 15-15 15z"/></symbol>
    <symbol id="squares" viewBox="-19 -19 600 600"><title>squares</title><path d="m251.25 12.5c0-6.90625-5.59375-12.5-12.5-12.5h-226.25c-6.90625 0-12.5 5.59375-12.5 12.5v226.25c0 6.90625 5.59375 12.5 12.5 12.5h226.25c6.90625 0 12.5-5.59375 12.5-12.5zm-25 213.75h-201.25v-201.25h201.25zm0 0"/><path d="m562.5 12.5c0-6.90625-5.59375-12.5-12.5-12.5h-226.25c-6.90625 0-12.5 5.59375-12.5 12.5v226.25c0 6.90625 5.59375 12.5 12.5 12.5h226.25c6.90625 0 12.5-5.59375 12.5-12.5zm-25 213.75h-201.25v-201.25h201.25zm0 0"/><path d="m251.25 323.75c0-6.90625-5.59375-12.5-12.5-12.5h-226.25c-6.90625 0-12.5 5.59375-12.5 12.5v226.25c0 6.90625 5.59375 12.5 12.5 12.5h226.25c6.90625 0 12.5-5.59375 12.5-12.5zm-25 212.5h-201.25v-200h201.25zm0 0"/><path d="m562.5 323.75c0-6.90625-5.59375-12.5-12.5-12.5h-226.25c-6.90625 0-12.5 5.59375-12.5 12.5v226.25c0 6.90625 5.59375 12.5 12.5 12.5h226.25c6.90625 0 12.5-5.59375 12.5-12.5zm-25 212.5h-201.25v-200h201.25zm0 0"/></symbol>
</svg>